#!OML:ASF H:\Dans Jumps\Project 1\Capture day 1\Session 1\subject.ASF
:FULLY-SPECIFIED
:DEGREES
465
root 0.304477 17.7361 -6.65385 5.91868 -0.187086 -1.59234
lowerback -0.568759 0.160006 -0.642168
upperback 3.28842 0.178838 1.60194
thorax 3.69369 0.0426968 2.0166
lowerneck -11.3294 0.128385 -2.00259
upperneck 35.0813 0.44363 0.810118
head 13.7705 0.0397457 0.745621
rclavicle -2.08724e-015 5.76476e-015
rhumerus -5.48908 4.27411 -89.3622
rradius 33.4917
rwrist 27.429
rhand -21.0613 -23.04
rfingers 7.12502
rthumb 5.31514 -52.9533
lclavicle -2.08724e-015 5.76476e-015
lhumerus -2.07885 -18.1219 87.341
lradius 28.7064
lwrist 12.5926
lhand -28.2575 -7.57996
lfingers 7.12502
lthumb -1.63464 22.3935
rfemur -15.989 -2.38777 20.0704
rtibia 22.115
rfoot -11.4538 -2.48697
rtoes 15.9558
lfemur -14.6713 6.30001 -19.2176
ltibia 19.4952
lfoot -8.78064 7.35308
ltoes 8.10157
466
root 0.303344 17.7371 -6.65455 5.96278 -0.199398 -1.60959
lowerback -0.578027 0.177792 -0.624055
upperback 3.28003 0.202015 1.60755
thorax 3.68933 0.0547899 2.01308
lowerneck -11.317 0.131804 -2.00083
upperneck 35.1291 0.451597 0.801928
head 13.7892 0.0422018 0.743599
rclavicle -5.41688e-015 -2.38542e-015
rhumerus -5.40309 4.59592 -89.4825
rradius 33.5591
rwrist 27.3246
rhand -21.1197 -23.0584
rfingers 7.12502
rthumb 5.25875 -52.9731
lclavicle -5.41688e-015 -2.38542e-015
lhumerus -1.93378 -18.8167 87.5777
lradius 29.0291
lwrist 12.7624
lhand -28.2577 -7.70476
lfingers 7.12502
lthumb -1.63478 22.2687
rfemur -16.0261 -2.39478 20.0934
rtibia 22.0808
rfoot -11.4286 -2.46839
rtoes 15.9417
lfemur -14.7236 6.31588 -19.2023
ltibia 19.4983
lfoot -8.77908 7.35281
ltoes 8.08798
467
root 0.302212 17.7379 -6.65495 6.002 -0.209244 -1.63109
lowerback -0.581776 0.194255 -0.598971
upperback 3.27496 0.223197 1.6139
thorax 3.68539 0.0660624 2.00632
lowerneck -11.3069 0.138153 -1.99775
upperneck 35.1782 0.464768 0.790531
head 13.8088 0.0466513 0.740841
rclavicle -1.2921e-015 -3.18055e-015
rhumerus -5.35546 4.90328 -89.5961
rradius 33.6257
rwrist 27.2244
rhand -21.1939 -23.0699
rfingers 7.12502
rthumb 5.18713 -52.9864
lclavicle -1.2921e-015 -3.18055e-015
lhumerus -1.83927 -19.4732 87.822
lradius 29.3766
lwrist 12.9197
lhand -28.273 -7.86106
lfingers 7.12502
lthumb -1.64958 22.1123
rfemur -16.0566 -2.40016 20.1215
rtibia 22.0485
rfoot -11.4081 -2.45365
rtoes 15.9288
lfemur -14.7717 6.33035 -19.1807
ltibia 19.5053
lfoot -8.7799 7.3519
ltoes 8.07386
468
root 0.301159 17.7385 -6.65506 6.03 -0.189807 -1.64842
lowerback -0.573065 0.200256 -0.571261
upperback 3.27361 0.230393 1.61866
thorax 3.67883 0.0704663 1.99587
lowerneck -11.2863 0.14582 -2.00038
upperneck 35.2214 0.47963 0.783438
head 13.8234 0.0516891 0.740969
rclavicle 3.47873e-016 -9.74045e-015
rhumerus -5.34388 5.18986 -89.7058
rradius 33.6868
rwrist 27.1303
rhand -21.269 -23.0813
rfingers 7.12502
rthumb 5.11457 -52.9996
lclavicle 3.47873e-016 -9.74045e-015
lhumerus -1.79027 -20.093 88.0734
lradius 29.7362
lwrist 13.0716
lhand -28.2968 -8.02029
lfingers 7.12502
lthumb -1.67261 21.9529
rfemur -16.0714 -2.41878 20.1461
rtibia 22.0205
rfoot -11.3972 -2.45476
rtoes 15.9269
lfemur -14.809 6.32728 -19.1601
ltibia 19.5113
lfoot -8.78315 7.33826
ltoes 8.07355
469
root 0.300086 17.7392 -6.655 6.05818 -0.176841 -1.66082
lowerback -0.564499 0.207321 -0.547061
upperback 3.27439 0.23917 1.6205
thorax 3.67451 0.075571 1.98445
lowerneck -11.2567 0.154389 -2.01012
upperneck 35.2593 0.495112 0.783032
head 13.8337 0.0569669 0.745046
rclavicle 1.54058e-015 -4.17448e-015
rhumerus -5.36774 5.46143 -89.811
rradius 33.7425
rwrist 27.0434
rhand -21.3449 -23.0915
rfingers 7.12502
rthumb 5.04132 -53.0115
lclavicle 1.54058e-015 -4.17448e-015
lhumerus -1.7828 -20.6755 88.3313
lradius 30.1035
lwrist 13.2266
lhand -28.3162 -8.16989
lfingers 7.12502
lthumb -1.69132 21.8032
rfemur -16.0886 -2.43396 20.1653
rtibia 21.9978
rfoot -11.3889 -2.4523
rtoes 15.9319
lfemur -14.8418 6.3306 -19.1452
ltibia 19.512
lfoot -8.78672 7.32367
ltoes 8.08263
470
root 0.298921 17.74 -6.65492 6.08808 -0.168185 -1.66617
lowerback -0.554404 0.214731 -0.528877
upperback 3.27539 0.248692 1.61841
thorax 3.66952 0.0809327 1.97237
lowerneck -11.2391 0.16516 -2.0106
upperneck 35.3098 0.513689 0.77708
head 13.8522 0.0639506 0.745866
rclavicle -2.6339e-015 -3.77691e-015
rhumerus -5.42297 5.71059 -89.9145
rradius 33.7871
rwrist 26.9657
rhand -21.406 -23.1021
rfingers 7.12502
rthumb 4.98233 -53.0235
lclavicle -2.6339e-015 -3.77691e-015
lhumerus -1.82123 -21.2252 88.5951
lradius 30.4815
lwrist 13.3955
lhand -28.3345 -8.30539
lfingers 7.12502
lthumb -1.70893 21.6675
rfemur -16.1113 -2.44358 20.177
rtibia 21.9811
rfoot -11.3807 -2.45254
rtoes 15.9438
lfemur -14.8717 6.33661 -19.1382
ltibia 19.5045
lfoot -8.78559 7.30879
ltoes 8.09384
471
root 0.297861 17.7408 -6.65428 6.11138 -0.170632 -1.6647
lowerback -0.543069 0.22435 -0.515627
upperback 3.28179 0.261348 1.61265
thorax 3.6693 0.0877029 1.95942
lowerneck -11.2373 0.178413 -1.99956
upperneck 35.3751 0.536581 0.761941
head 13.881 0.0729628 0.741782
rclavicle -3.23025e-015 -1.37161e-014
rhumerus -5.50902 5.94446 -90.0135
rradius 33.8222
rwrist 26.9
rhand -21.4528 -23.1146
rfingers 7.12502
rthumb 4.93714 -53.0371
lclavicle -3.23025e-015 -1.37161e-014
lhumerus -1.90084 -21.742 88.8661
lradius 30.8583
lwrist 13.5748
lhand -28.3599 -8.43026
lfingers 7.12502
lthumb -1.73355 21.5424
rfemur -16.1287 -2.44707 20.1803
rtibia 21.9693
rfoot -11.3742 -2.45024
rtoes 15.9486
lfemur -14.8863 6.34794 -19.1386
ltibia 19.4885
lfoot -8.78208 7.29737
ltoes 8.10204
472
root 0.29682 17.7415 -6.65333 6.13221 -0.176071 -1.65886
lowerback -0.530923 0.232786 -0.505762
upperback 3.29115 0.272535 1.60517
thorax 3.67176 0.093632 1.94656
lowerneck -11.2557 0.19469 -1.97766
upperneck 35.459 0.564932 0.737487
head 13.9229 0.0843499 0.73307
rclavicle 1.44119e-015 1.8487e-014
rhumerus -5.62203 6.1647 -90.1086
rradius 33.843
rwrist 26.8443
rhand -21.4865 -23.1305
rfingers 7.12502
rthumb 4.90457 -53.0537
lclavicle 1.44119e-015 1.8487e-014
lhumerus -2.02062 -22.2386 89.1426
lradius 31.2245
lwrist 13.7745
lhand -28.4058 -8.57391
lfingers 7.12502
lthumb -1.77785 21.3984
rfemur -16.144 -2.44863 20.1788
rtibia 21.9606
rfoot -11.3678 -2.44865
rtoes 15.9508
lfemur -14.893 6.35924 -19.1439
ltibia 19.4652
lfoot -8.77376 7.28816
ltoes 8.10716
473
root 0.295715 17.7423 -6.65211 6.15139 -0.184671 -1.64931
lowerback -0.517641 0.240353 -0.500156
upperback 3.30319 0.282651 1.59746
thorax 3.67639 0.0988726 1.93582
lowerneck -11.2794 0.213282 -1.95949
upperneck 35.5506 0.597797 0.713342
head 13.9694 0.0971346 0.725893
rclavicle 3.13086e-015 2.98177e-015
rhumerus -5.75885 6.368 -90.1977
rradius 33.8427
rwrist 26.8124
rhand -21.508 -23.13
rfingers 7.12502
rthumb 4.88383 -53.0537
lclavicle 3.13086e-015 2.98177e-015
lhumerus -2.17892 -22.7081 89.4275
lradius 31.5789
lwrist 13.9897
lhand -28.4665 -8.71329
lfingers 7.12502
lthumb -1.83649 21.2586
rfemur -16.1579 -2.44396 20.1731
rtibia 21.953
rfoot -11.3605 -2.45103
rtoes 15.9514
lfemur -14.894 6.3693 -19.1528
ltibia 19.4366
lfoot -8.76262 7.28132
ltoes 8.11439
